<?xml version="1.0"?>
<!DOCTYPE svg PUBLIC "-//W3C//DTD SVG 1.1//EN"
"http://www.w3.org/Graphics/SVG/1.1/DTD/svg11.dtd">

<svg height="2430" width="2430">
	<polyline points="243,2187 243,1944 243,1701 486,1701 486,1944 486,2187 729,2187 729,1944 729,1701 729,1458 
	729,1215 729,972 486,972 486,1215 486,1458 243,1458 243,1215 243,972 243,729 
	243,486 243,243 486,243 486,486 486,729 729,729 729,486 729,243 972,243 
	972,486 972,729 1215,729 1215,486 1215,243 1458,243 1458,486 1458,729 1458,972 
	1458,1215 1458,1458 1215,1458 1215,1215 1215,972 972,972 972,1215 972,1458 972,1701 
	972,1944 972,2187 1215,2187 1215,1944 1215,1701 1458,1701 1458,1944 1458,2187 1701,2187 
	1701,1944 1701,1701 1944,1701 1944,1944 1944,2187 2187,2187 2187,1944 2187,1701 2187,1458 
	2187,1215 2187,972 1944,972 1944,1215 1944,1458 1701,1458 1701,1215 1701,972 1701,729 
	1701,486 1701,243 1944,243 1944,486 1944,729 2187,729 2187,486 2187,243 "
	style="fill:none;stroke:white;stroke-width:10" />
</svg>
